PathFileType	4	(X/Y/Z)	C:\Users\Basilio\Documents\Thesis Gigler\squatting_fais\c3dfiles\040\SLS_pre_back1\markers_experimental.trc
DataRate	CameraRate	NumFrames	NumMarkers	Units	OrigDataRate	OrigDataStartFrame	OrigNumFrames
200.000000	200.000000	4	64	mm	200.000000	402	1073
Frame#	Time	FHD			LBHD			RBHD			C7			T10			CLAV			LSHO			LUUPA			LMUPA			LDUPA			LLEP			LMEP			LRAD			LUL			LRFIN			RSHO			RUPA1			RMUPA			RDUPA			RLEP			RMEP			RRAD			RUL			RUFIN			LASI			RASI			USACR			LSACR			RSACR			LTHI1			LTHI2			LTHI3			LTHI4			LLFC			LMFC			LTIB1			LTIB2			LTIB3			LTIB4			LLMAL			LMMAL			LHEE			LMT1			LMT2			LMT5			RTHI			RTHI2			RTHI3			RTHI4			RLFC			RMFC			RTIB1			RTIB2			RTIB3			RTIB4			RLMAL			RMMAL			RHEE			RMT1			RMT2			RMT5			*61			*62			*63			
		X1	Y1	Z1	X2	Y2	Z2	X3	Y3	Z3	X4	Y4	Z4	X5	Y5	Z5	X6	Y6	Z6	X7	Y7	Z7	X8	Y8	Z8	X9	Y9	Z9	X10	Y10	Z10	X11	Y11	Z11	X12	Y12	Z12	X13	Y13	Z13	X14	Y14	Z14	X15	Y15	Z15	X16	Y16	Z16	X17	Y17	Z17	X18	Y18	Z18	X19	Y19	Z19	X20	Y20	Z20	X21	Y21	Z21	X22	Y22	Z22	X23	Y23	Z23	X24	Y24	Z24	X25	Y25	Z25	X26	Y26	Z26	X27	Y27	Z27	X28	Y28	Z28	X29	Y29	Z29	X30	Y30	Z30	X31	Y31	Z31	X32	Y32	Z32	X33	Y33	Z33	X34	Y34	Z34	X35	Y35	Z35	X36	Y36	Z36	X37	Y37	Z37	X38	Y38	Z38	X39	Y39	Z39	X40	Y40	Z40	X41	Y41	Z41	X42	Y42	Z42	X43	Y43	Z43	X44	Y44	Z44	X45	Y45	Z45	X46	Y46	Z46	X47	Y47	Z47	X48	Y48	Z48	X49	Y49	Z49	X50	Y50	Z50	X51	Y51	Z51	X52	Y52	Z52	X53	Y53	Z53	X54	Y54	Z54	X55	Y55	Z55	X56	Y56	Z56	X57	Y57	Z57	X58	Y58	Z58	X59	Y59	Z59	X60	Y60	Z60	X61	Y61	Z61	X62	Y62	Z62	X63	Y63	Z63	X64	Y64	Z64	

403	2.01	3.875423908233643	1541.70263671875	-1271.007934570313	-123.0080795288086	1496.39794921875	-1311.167846679688	-179.6353759765625	1467.28564453125	-1178.627319335938	-205.4103393554688	1380.486450195313	-1221.135986328125	-392.0234680175782	1138.0185546875	-1171.857666015625	-115.3665466308594	1266.559692382813	-1217.498657226563	-143.0405731201172	1343.971069335938	-1353.951049804688	-2.693485021591187	1269.562133789063	-1427.879150390625	28.97765731811524	1277.443359375	-1390.22314453125	63.1652069091797	1245.557861328125	-1430.371826171875	115.2736511230469	1208.106079101563	-1429.350463867188	92.98916625976564	1153.614868164063	-1397.845947265625	nan	nan	nan	384.9829406738282	1184.555053710938	-1356.616577148438	455.3093566894532	1193.204833984375	-1268.017456054688	-116.2052764892578	1344.514892578125	-1088.23828125	17.79168128967286	1247.147705078125	-1010.586059570313	50.19383239746095	1260.516479492188	-1043.7119140625	80.22662353515626	1215.75732421875	-1015.74951171875	137.9474334716797	1192.278930664063	-1029.369506835938	111.0969314575196	1136.555053710938	-1072.417602539063	385.9553833007814	1175.70556640625	-1194.287353515625	400.0116577148439	1156.581176757813	-1121.5771484375	474.0802001953126	1178.247680664063	-1205.361083984375	-325.9281921386719	905.1677246093752	-1252.270141601563	-330.0331420898438	903.699401855469	-1032.557983398438	-476.8628234863282	1020.859436035156	-1150.891479492188	-499.814666748047	997.2911376953127	-1179.3154296875	-498.8057556152345	997.111022949219	-1122.695068359375	-344.9520263671876	685.4716796875001	-1325.617431640625	-268.7557983398438	647.2604370117189	-1334.173828125	-232.1283721923829	676.4649658203126	-1335.391845703125	-253.3880310058594	591.8427124023439	-1314.647338867188	-169.3148193359375	499.7702941894532	-1298.771728515625	-176.0267791748047	496.6380615234376	-1175.6748046875	-191.9295959472657	289.5760192871094	-1226.858764648438	-269.5163574218751	272.7824401855469	-1268.772827148438	-233.0110626220704	254.6439666748047	-1248.8154296875	-257.5894470214844	184.8879852294922	-1203.161499023438	-351.0006713867188	122.1778106689453	-1212.048217773438	-319.1809082031251	143.5628204345703	-1130.586669921875	-419.4240722656251	98.19846343994143	-1160.97509765625	-208.5448760986329	57.74396133422853	-1130.567016601563	-206.8879699707032	48.81086349487306	-1176.34326171875	-256.6894836425782	32.84248733520509	-1225.469116210938	-437.4299926757814	665.0128173828126	-958.5971679687502	-418.3614501953126	600.7038574218751	-961.0954589843752	-387.0303955078126	594.3785400390626	-969.190856933594	-466.0722961425782	533.0341186523439	-963.514831542969	-497.4609375000001	428.8463134765626	-965.7152099609377	-519.0623168945314	422.8752441406251	-1093.20263671875	-661.4577026367189	346.3446350097657	-973.1295166015627	-740.5689086914064	413.8310852050782	-937.4453735351565	-741.8773193359376	367.3897705078126	-947.824645996094	-790.602966308594	348.2393798828126	-976.3496093750002	-908.3154907226565	390.2837219238282	-940.6199951171877	-901.065368652344	378.6214904785157	-1030.082397460938	-962.067321777344	452.7543945312501	-990.5278930664065	-952.531433105469	234.126449584961	-1014.717956542969	-949.713562011719	232.3513183593751	-973.449401855469	-977.2861938476565	267.6246032714844	-920.5483398437502	nan	nan	nan	nan	nan	nan	nan	nan	nan	
404	2.015	3.588126659393311	1540.160278320313	-1270.1904296875	-122.2023391723633	1494.673950195313	-1311.037475585938	-178.8308410644532	1465.712280273438	-1178.478515625	-204.4830017089844	1378.88671875	-1221.003173828125	-392.196502685547	1136.46240234375	-1171.864990234375	-115.0718765258789	1264.613525390625	-1217.129272460938	-142.5264587402344	1342.525024414063	-1353.757202148438	-2.260034322738648	1267.813720703125	-1427.838989257813	29.88828468322755	1275.755859375	-1390.219116210938	63.93783187866212	1243.619384765625	-1430.284790039063	115.3857727050782	1206.450805664063	-1429.23046875	93.20051574707033	1152.260009765625	-1397.67919921875	nan	nan	nan	385.0173339843751	1182.868286132813	-1356.651611328125	455.8612060546876	1191.621459960938	-1268.0419921875	-115.2348785400391	1343.129638671875	-1087.8798828125	18.51640319824219	1245.53076171875	-1010.387084960938	50.55685043334962	1259.107788085938	-1043.493774414063	80.78633117675783	1213.940063476563	-1015.651489257813	138.6957244873047	1191.597778320313	-1029.435302734375	111.9387893676758	1135.302368164063	-1072.468383789063	385.7579345703126	1174.400390625	-1194.306030273438	400.7558593750001	1155.203247070313	-1121.265869140625	474.4291076660157	1176.849853515625	-1205.3818359375	-326.0081176757813	904.1650390625002	-1252.2646484375	-330.1340332031251	902.7727050781252	-1032.554809570313	-477.0588684082032	1019.914733886719	-1150.798095703125	-500.0428466796876	996.1848754882815	-1179.412841796875	-498.8951721191407	996.0107421875002	-1122.53857421875	-344.4697570800782	684.6260375976564	-1325.051391601563	-268.2523803710938	646.3984985351564	-1333.485473632813	-231.6555175781251	675.7318115234376	-1334.693969726563	-252.9517669677735	590.9840087890626	-1313.890014648438	-168.5613098144532	498.8807373046876	-1298.021850585938	-175.723861694336	496.3871459960939	-1174.624877929688	-191.4150848388672	288.7582092285157	-1225.61328125	-268.7518615722657	272.5815124511719	-1267.758422851563	-232.6217803955079	254.1504364013672	-1247.688598632813	-257.1844177246094	184.5324096679688	-1202.166381835938	-350.7691955566407	122.3442840576172	-1211.531860351563	-319.1754455566407	143.4068908691407	-1130.043212890625	-419.3332519531251	98.14742279052737	-1160.698852539063	-208.6746978759766	57.7854347229004	-1130.266723632813	-206.8257598876954	48.88156127929689	-1176.048583984375	-256.7505187988282	33.06570053100587	-1225.354125976563	-437.9700927734376	664.0212402343751	-958.820251464844	-418.868133544922	599.6092529296876	-961.7209472656252	-387.7718505859376	593.2888183593751	-969.5471801757815	-466.7558898925782	531.6447753906251	-963.859558105469	-497.8377075195314	427.7122497558595	-966.1054687500002	-519.8793334960939	421.6532592773439	-1093.651000976563	-662.4046630859376	345.4729003906251	-973.094665527344	-741.3320312500001	412.889617919922	-937.6727294921877	-742.5042724609376	366.9012145996094	-948.0734863281252	-791.6196899414065	347.5248718261719	-976.1002197265627	-909.030700683594	389.7743530273439	-940.4661865234377	-902.0217285156252	378.3363342285157	-1030.025146484375	-962.6619262695315	452.8492431640626	-990.1732177734377	-953.6587524414065	233.5278778076172	-1015.019287109375	-950.923278808594	231.4985351562501	-973.861022949219	-978.4212036132815	267.1665344238282	-920.5096435546877	nan	nan	nan	nan	nan	nan	nan	nan	nan	
405	2.02	5.495024204254151	1537.994873046875	-1270.453857421875	-121.5548477172852	1493.020141601563	-1310.826293945313	-178.2747192382813	1464.212036132813	-1178.034301757813	-203.7611541748047	1377.324462890625	-1220.47412109375	-392.089324951172	1135.450439453125	-1171.716552734375	-114.3860549926758	1263.270385742188	-1217.215576171875	-141.8649444580078	1341.029541015625	-1353.478515625	-1.689889192581177	1266.2763671875	-1427.70947265625	30.44589996337891	1273.739624023438	-1389.998779296875	64.22180175781251	1242.3134765625	-1430.36279296875	115.4618072509766	1205.117431640625	-1429.408447265625	93.58506774902345	1150.497680664063	-1397.401611328125	nan	nan	nan	385.2905578613282	1181.061889648438	-1356.855346679688	456.6502990722657	1189.310791015625	-1268.322998046875	-114.6287918090821	1341.353271484375	-1087.868041992188	18.95144271850586	1244.029174804688	-1010.467041015625	51.47746658325197	1257.301513671875	-1043.625	81.4087371826172	1212.60498046875	-1015.631713867188	139.1679229736328	1188.394409179688	-1028.901489257813	112.0625686645508	1133.786987304688	-1072.166137695313	386.6574707031251	1172.595581054688	-1194.236083984375	401.4809570312501	1154.000122070313	-1121.291015625	475.114471435547	1175.430297851563	-1205.42724609375	-326.3078918457032	903.1696777343752	-1252.142822265625	-329.9895324707032	901.1873779296877	-1032.02685546875	-477.0601196289064	1018.748474121094	-1150.739868164063	-500.1154785156251	995.0327758789065	-1179.27294921875	-498.8703613281251	995.0107421875002	-1122.499877929688	-344.1195678710938	683.6204833984376	-1324.598876953125	-267.7366638183594	645.6787719726564	-1332.63720703125	-230.9949035644532	675.0180664062501	-1333.859619140625	-252.422836303711	590.2557983398439	-1313.217529296875	-167.4369354248047	498.3775634765626	-1296.702392578125	-175.4391021728516	496.3521423339845	-1174.890380859375	-191.2541961669922	288.5424804687501	-1224.229248046875	-268.0580139160157	272.1806335449219	-1266.857543945313	-232.0467987060547	253.7951049804688	-1246.6103515625	-256.9588012695313	183.7226867675782	-1200.88232421875	-350.5260009765626	122.3596954345703	-1211.004516601563	-319.3109436035157	143.093978881836	-1129.37109375	-419.2877197265626	98.0862731933594	-1160.569458007813	-208.5187072753907	57.29421615600587	-1130.049194335938	-206.7920684814454	48.90913391113283	-1175.786010742188	-256.7196655273438	33.15639877319337	-1225.233032226563	-438.6787414550782	662.4489135742189	-958.8275146484377	-419.4283142089845	598.3144531250001	-961.8472290039065	-388.6936340332032	590.9198608398439	-970.5105590820315	-466.7802734375001	530.6417236328126	-964.0007934570315	-498.7615051269532	426.5454406738282	-966.1887817382815	-520.7577514648439	420.8063049316407	-1094.026977539063	-663.5232543945314	344.3102416992188	-973.7415161132815	-741.8272094726564	412.0154418945314	-937.759704589844	-743.2294921875001	365.9423828125001	-948.3808593750002	-792.274353027344	346.8091430664063	-976.2321777343752	-909.978698730469	389.0952453613282	-940.3981933593752	-903.0544433593752	378.1497802734376	-1030.044799804688	-963.4519653320315	452.6213684082032	-989.9522094726565	-954.826843261719	233.2898712158204	-1014.921264648438	-951.8936767578127	231.1097259521485	-974.4936523437502	-979.7996215820315	266.3965759277344	-921.0068969726565	nan	nan	nan	nan	nan	nan	nan	nan	nan	
406	2.025	5.815565586090089	1536.764038085938	-1270.299560546875	-120.9053192138672	1491.349731445313	-1310.691772460938	-177.5914154052735	1462.415893554688	-1178.0107421875	-203.0658111572266	1375.895385742188	-1220.42919921875	-391.5106201171876	1134.423461914063	-1171.432861328125	-113.5215530395508	1261.13818359375	-1216.914672851563	-141.3169860839844	1339.58984375	-1353.167236328125	-1.293229222297669	1264.813720703125	-1427.603515625	30.3824634552002	1272.612915039063	-1390.008911132813	64.43899536132814	1240.699951171875	-1430.3349609375	116.4066925048828	1203.110961914063	-1429.297607421875	94.00112915039064	1148.9111328125	-1397.407348632813	nan	nan	nan	385.9194946289064	1178.857299804688	-1356.836181640625	456.9577941894532	1187.821899414063	-1269.038696289063	-114.0241928100586	1339.896362304688	-1087.62890625	19.71219635009766	1242.559814453125	-1010.158325195313	52.17603683471681	1256.151733398438	-1043.147705078125	81.90112304687501	1211.001342773438	-1015.4091796875	139.7993774414063	1186.802124023438	-1028.8369140625	112.6747436523438	1132.027587890625	-1072.303588867188	387.9361877441407	1171.081420898438	-1194.062622070313	402.1024475097657	1151.792236328125	-1121.54443359375	476.0523376464845	1173.825317382813	-1205.31298828125	-326.3167114257813	901.8873291015627	-1251.970825195313	-330.2652893066407	900.0712890625002	-1032.069458007813	-477.181365966797	1017.802185058594	-1150.645385742188	-500.2571716308595	994.1577758789065	-1179.3173828125	-499.175994873047	994.101257324219	-1122.470703125	-343.7325134277344	682.6383056640626	-1324.191772460938	-267.2060546875001	645.1440429687501	-1331.989379882813	-230.5346984863282	674.4061889648439	-1333.111938476563	-251.5128479003907	589.4841918945314	-1312.141479492188	-166.8814697265625	498.5263977050782	-1295.739501953125	-175.4115447998047	496.0941467285157	-1173.257446289063	-190.7853088378907	288.4327697753907	-1223.193603515625	-267.7333984375001	272.6926269531251	-1266.17919921875	-231.7723083496094	253.8909759521485	-1245.543334960938	-256.8530578613282	183.8381652832032	-1200.090576171875	-350.0950622558594	122.376693725586	-1210.549438476563	-319.4424438476563	142.9875640869141	-1128.842163085938	-419.2860107421876	98.18811798095706	-1160.390869140625	-208.5515136718751	57.21596145629884	-1129.769897460938	-206.8074798583985	48.90539932250978	-1175.782836914063	-256.7306518554688	33.29888534545899	-1225.109008789063	-439.0548400878907	661.4150390625001	-959.1970214843752	-419.9728393554689	596.7548217773439	-962.2918090820315	-389.1437072753907	589.8652343750001	-970.725280761719	-467.7131347656251	529.3406372070314	-964.6102294921877	-499.4412231445314	425.2212219238282	-966.7392578125002	-522.0140380859376	420.0665588378907	-1094.5244140625	-664.2035522460939	343.4060974121094	-974.0622558593752	-742.5191650390626	411.311981201172	-937.8367919921877	-743.8269042968751	365.4212646484376	-948.5283203125002	-793.1152954101565	346.0791931152344	-976.7045898437502	-910.6126708984377	388.7583007812501	-940.3833007812502	-904.0927734375002	377.9749755859376	-1030.166015625	-964.147644042969	452.2891540527345	-989.6814575195315	-955.7243652343752	233.0354461669922	-1015.121459960938	-953.1716918945315	231.4776611328126	-974.6458129882815	-980.707214355469	266.0412597656251	-921.1066894531252	nan	nan	nan	nan	nan	nan	nan	nan	nan	
